<?xml version="1.0" encoding="UTF-8"?>
<svg width="1600px" height="1600px" viewBox="0 0 1600 1600" version="1.1" xmlns="http://www.w3.org/2000/svg" xmlns:xlink="http://www.w3.org/1999/xlink">
    <!-- Generator: Sketch 59 (86127) - https://sketch.com -->
    <title>Artboard</title>
    <desc>Created with Sketch.</desc>
    <g id="Artboard" stroke="none" stroke-width="1" fill="none" fill-rule="evenodd">
        <g id="Group" transform="translate(335.000000, 253.460000)" fill="#EEEEEE" fill-rule="nonzero">
            <path d="M30.38,60.5 C26.24,60.5 22.88,57.14 22.88,53 L22.88,8 C22.88,3.86 26.24,0.5 30.38,0.5 C34.52,0.5 37.88,3.86 37.88,8 L37.88,53 C37.88,57.14 34.52,60.5 30.38,60.5 Z" id="Path"></path>
            <path d="M52.88,38 L7.88,38 C3.74,38 0.38,34.64 0.38,30.5 C0.38,26.36 3.74,23 7.88,23 L52.88,23 C57.02,23 60.38,26.36 60.38,30.5 C60.38,34.64 57.02,38 52.88,38 Z" id="Path"></path>
        </g>
        <g id="Group" transform="translate(76.000000, 479.460000)" fill="#EEEEEE" fill-rule="nonzero">
            <path d="M30.38,60.5 C26.24,60.5 22.88,57.14 22.88,53 L22.88,8 C22.88,3.86 26.24,0.5 30.38,0.5 C34.52,0.5 37.88,3.86 37.88,8 L37.88,53 C37.88,57.14 34.52,60.5 30.38,60.5 Z" id="Path"></path>
            <path d="M52.88,38 L7.88,38 C3.74,38 0.38,34.64 0.38,30.5 C0.38,26.36 3.74,23 7.88,23 L52.88,23 C57.02,23 60.38,26.36 60.38,30.5 C60.38,34.64 57.02,38 52.88,38 Z" id="Path"></path>
        </g>
        <g id="Group" transform="translate(1400.000000, 1064.460000)" fill="#EEEEEE" fill-rule="nonzero">
            <path d="M30.38,60.5 C26.24,60.5 22.88,57.14 22.88,53 L22.88,8 C22.88,3.86 26.24,0.5 30.38,0.5 C34.52,0.5 37.88,3.86 37.88,8 L37.88,53 C37.88,57.14 34.52,60.5 30.38,60.5 Z" id="Path"></path>
            <path d="M52.88,38 L7.88,38 C3.74,38 0.38,34.64 0.38,30.5 C0.38,26.36 3.74,23 7.88,23 L52.88,23 C57.02,23 60.38,26.36 60.38,30.5 C60.38,34.64 57.02,38 52.88,38 Z" id="Path"></path>
        </g>
        <g id="Group" transform="translate(929.000000, 1337.460000)" fill="#EEEEEE" fill-rule="nonzero">
            <path d="M30.38,60.5 C26.24,60.5 22.88,57.14 22.88,53 L22.88,8 C22.88,3.86 26.24,0.5 30.38,0.5 C34.52,0.5 37.88,3.86 37.88,8 L37.88,53 C37.88,57.14 34.52,60.5 30.38,60.5 Z" id="Path"></path>
            <path d="M52.88,38 L7.88,38 C3.74,38 0.38,34.64 0.38,30.5 C0.38,26.36 3.74,23 7.88,23 L52.88,23 C57.02,23 60.38,26.36 60.38,30.5 C60.38,34.64 57.02,38 52.88,38 Z" id="Path"></path>
        </g>
        <path d="M73.8,237.93 C73.66,232.41 78.03,227.93 83.55,227.8 L83.55,227.8 C89.07,227.66 93.66,231.87 93.79,237.38 L93.79,237.38 C93.93,242.9 89.56,247.46 84.04,247.46 L84.04,247.46 C83.96,247.46 83.87,247.46 83.79,247.46 L83.79,247.46 C78.38,247.46 73.93,243.37 73.8,237.93 Z M44.18,232.46 L44.19,232.46 C40.21,228.46 40.09,222.27 43.92,218.29 L43.92,218.29 C47.75,214.32 54.08,214.19 58.06,218.02 L58.06,218.02 L58.06,218.02 L58.06,218.02 C62.04,221.85 62.16,228.17 58.33,232.15 L58.33,232.15 C56.36,234.19 53.74,235.24 51.12,235.24 L51.12,235.24 C48.62,235.23 46.12,234.46 44.18,232.46 Z M108.94,230.87 C104.92,227.09 104.72,220.76 108.5,216.73 L108.5,216.73 L108.5,216.73 L108.5,216.73 C112.28,212.71 118.61,212.51 122.64,216.29 L122.64,216.29 C126.66,220.08 126.86,226.4 123.08,230.43 L123.08,230.43 C121.11,232.52 118.45,233.58 115.79,233.58 L115.79,233.58 C113.33,233.58 110.87,232.68 108.94,230.87 Z M27.2,193.36 C27.14,187.84 31.56,183.2 37.08,183.13 L37.08,183.13 C42.6,183.06 47.13,187.64 47.2,193.17 L47.2,193.17 C47.27,198.69 42.85,203.450016 37.33,203.450016 L37.33,203.450016 C37.29,203.450016 37.24,203.450016 37.2,203.450016 L37.2,203.450016 C31.73,203.46 27.27,198.85 27.2,193.36 Z M118.09,190.97 L118.09,190.97 L118.09,190.97 C117.88,185.45 122.19,180.92 127.71,180.72 L127.71,180.72 C133.23,180.52 137.87,184.45 138.07,190.45 L138.08,190.45 C138.28,195.45 133.97,200.450018 128.45,200.450018 L128.45,200.450018 C128.32,200.450018 128.2,200.450018 128.07,200.450018 L128.07,200.450018 C122.72,200.46 118.29,196.36 118.09,190.97 Z M43.29,167.63 C39.36,163.75 39.32,157.42 43.2,153.49 L43.2,153.49 C47.08,149.56 53.41,149.52 57.34,153.4 L57.34,153.4 C61.27,157.29 61.31,163.62 57.43,167.55 L57.43,167.55 C55.47,169.53 52.89,170.52 50.31,170.52 L50.31,170.52 C47.77,170.52 45.23,169.56 43.29,167.63 Z M106.6,166.31 L106.6,166.31 L106.6,166.31 C102.53,162.58 102.26,156.25 105.99,152.18 L105.99,152.18 C109.72,148.11 116.04,147.84 120.12,151.57 L120.12,151.57 C124.19,155.3 124.46,161.62 120.73,165.7 L120.73,165.7 C118.76,167.85 116.06,168.94 113.36,168.94 L113.36,168.94 C110.94,168.94 108.52,168.07 106.6,166.31 Z M72.66,147 C72.66,141.48 77.13,137 82.66,137 L82.66,137 C88.18,137 92.66,141.48 92.66,147 L92.66,147 C92.66,152.53 88.18,157 82.66,157 L82.66,157 C77.13,157 72.66,152.53 72.66,147 Z" id="Shape" fill="#EEEEEE" fill-rule="nonzero"></path>
        <path d="M492.8,561.93 C492.66,556.41 497.03,551.93 502.55,551.79 L502.55,551.79 C508.07,551.66 512.66,555.86 512.79,561.38 L512.79,561.38 C512.93,566.9 508.56,571.46 503.04,571.46 L503.04,571.46 C502.96,571.46 502.87,571.46 502.79,571.46 L502.79,571.46 C497.38,571.46 492.93,567.37 492.8,561.93 Z M463.19,556.4 L463.19,556.4 C459.21,552.57 459.09,546.24 462.92,542.26 L462.92,542.26 C466.75,538.28 473.08,538.17 477.06,542 L477.06,542 L477.06,542 L477.06,542 C481.04,545.83 481.16,552.16 477.33,556.14 L477.33,556.14 C475.36,558.18 472.74,559.2 470.12,559.2 L470.12,559.2 C467.63,559.2 465.13,558.27 463.19,556.4 Z M527.94,554.87 C523.92,551.09 523.72,544.76 527.5,540.73 L527.5,540.73 C531.28,536.71 537.61,536.51 541.64,540.29 L541.64,540.29 C545.66,544.08 545.86,550.4 542.08,554.43 L542.08,554.43 C540.11,556.52 537.45,557.58 534.79,557.58 L534.79,557.58 C532.33,557.58 529.87,556.68 527.94,554.87 Z M446.2,517.37 C446.14,511.85 450.56,507.21 456.08,507.14 L456.08,507.14 C461.6,507.07 466.13,511.65 466.2,517.18 L466.2,517.18 C466.27,522.7 461.85,527.46 456.33,527.46 L456.33,527.46 C456.29,527.46 456.24,527.46 456.2,527.46 L456.2,527.46 C450.74,527.46 446.27,522.85 446.2,517.37 Z M537.09,514.97 L537.09,514.97 L537.09,514.97 C536.88,509.45 541.19,504.88 546.71,504.68 L546.71,504.68 C552.23,504.48 556.87,508.67 557.07,514.19 L557.07,514.19 C557.28,519.71 552.97,524.450018 547.45,524.450018 L547.45,524.450018 C547.32,524.450018 547.2,524.450018 547.07,524.450018 L547.07,524.450018 C541.72,524.46 537.29,520.36 537.09,514.97 Z M462.29,491.63 C458.36,487.75 458.32,481.42 462.2,477.49 L462.2,477.49 C466.08,473.56 472.41,473.52 476.34,477.4 L476.34,477.4 C480.27,481.28 480.31,487.62 476.43,491.55 L476.43,491.55 C474.47,493.53 471.89,494.52 469.31,494.52 L469.31,494.52 C466.77,494.52 464.24,493.56 462.29,491.63 Z M525.6,490.31 C521.53,486.58 521.26,480.25 524.99,476.18 L524.99,476.18 C528.72,472.11 535.04,471.84 539.12,475.57 L539.12,475.57 C543.19,479.3 543.46,485.63 539.73,489.7 L539.73,489.7 C537.76,491.85 535.06,492.94 532.36,492.94 L532.36,492.94 C529.94,492.94 527.52,492.07 525.6,490.31 Z M491.77,471 C491.77,465.48 495.88,461 501.88,461 L501.88,461.01 C506.88,461.01 511.77,465.48 511.77,471 L511.77,471 C511.77,476.53 507.29,481 501.77,481 L501.77,481 C496.24,481 491.77,476.53 491.77,471 Z" id="Shape" fill="#EEEEEE" fill-rule="nonzero"></path>
        <path d="M1059.8,1094.93 C1059.66,1089.41 1064.03,1084.93 1069.55,1084.8 L1069.55,1084.8 C1075.07,1084.66 1079.66,1088.86 1079.79,1094.38 L1079.79,1094.38 C1079.93,1099.9 1075.56,1104.46 1070.04,1104.46 L1070.04,1104.46 C1069.96,1104.46 1069.87,1104.46 1069.79,1104.46 L1069.79,1104.46 C1064.38,1104.46 1059.93,1100.37 1059.8,1094.93 Z M1030.19,1089.4 C1026.21,1085.57 1026.09,1079.24 1029.92,1075.26 L1029.92,1075.26 C1033.75,1071.28 1040.08,1071.17 1044.06,1075 L1044.06,1075 L1044.06,1075 L1044.06,1075 C1048.04,1078.83 1048.16,1085.16 1044.33,1089.14 L1044.33,1089.14 C1042.36,1091.18 1039.74,1092.2 1037.12,1092.2 L1037.12,1092.2 C1034.63,1092.2 1032.13,1091.27 1030.19,1089.4 Z M1094.94,1087.87 C1090.92,1084.09 1090.72,1077.76 1094.5,1073.73 L1094.5,1073.73 C1098.28,1069.71 1104.61,1069.51 1108.64,1073.29 L1108.64,1073.29 C1112.66,1077.07 1112.86,1083.4 1109.08,1087.43 L1109.08,1087.43 C1107.11,1089.52 1104.45,1090.58 1101.79,1090.58 L1101.79,1090.58 C1099.33,1090.58 1096.87,1089.68 1094.94,1087.87 Z M1013.21,1050.37 C1013.14,1044.85 1017.56,1040.21 1023.08,1040.14 L1023.08,1040.14 C1028.6,1040.07 1033.14,1044.65 1033.2,1050.18 L1033.2,1050.18 C1033.27,1055.7 1028.85,1060.46 1023.33,1060.46 L1023.33,1060.46 C1023.28,1060.46 1023.24,1060.46 1023.2,1060.46 L1023.2,1060.46 C1017.74,1060.46 1013.27,1055.85 1013.21,1050.37 Z M1104.09,1048.12 C1103.88,1042.6 1108.19,1037.96 1113.71,1037.76 L1113.71,1037.76 C1119.23,1037.56 1123.87,1041.86 1124.07,1047.38 L1124.07,1047.38 C1124.28,1052.9 1119.97,1057.54 1114.45,1057.74 L1114.45,1057.74 C1114.32,1057.75 1114.2,1057.75 1114.07,1057.75 L1114.07,1057.75 C1108.72,1057.75 1104.29,1053.51 1104.09,1048.12 Z M1029.29,1024.63 C1025.36,1020.75 1025.32,1014.42 1029.2,1010.49 L1029.2,1010.49 C1033.08,1006.56 1039.41,1006.52 1043.34,1010.41 L1043.34,1010.41 C1047.27,1014.28 1047.31,1020.62 1043.43,1024.55 L1043.43,1024.55 C1041.47,1026.53 1038.89,1027.52 1036.31,1027.52 L1036.31,1027.52 C1033.78,1027.52 1031.24,1026.56 1029.29,1024.63 Z M1092.6,1023.31 C1088.53,1019.58 1088.25,1013.25 1091.99,1009.18 L1091.99,1009.18 C1095.72,1005.11 1102.04,1004.83 1106.12,1008.57 L1106.12,1008.57 C1110.19,1012.3 1110.46,1018.62 1106.73,1022.7 L1106.73,1022.7 C1104.76,1024.85 1102.06,1025.94 1099.36,1025.94 L1099.36,1025.94 C1096.94,1025.94 1094.52,1025.07 1092.6,1023.31 Z M1058.66,1004 C1058.66,998.48 1063.13,994 1068.66,994 L1068.66,994 C1074.18,994 1078.66,998.48 1078.66,1004 L1078.66,1004 C1078.66,1009.53 1074.18,1014 1068.66,1014 L1068.66,1014 C1063.13,1014 1058.66,1009.53 1058.66,1004 Z" id="Shape" fill="#EEEEEE" fill-rule="nonzero"></path>
        <path d="M1489.8,1413.93 C1489.66,1408.41 1494.03,1403.93 1499.55,1403.79 L1499.55,1403.79 C1505.07,1403.66 1509.66,1407.86 1509.79,1413.38 L1509.79,1413.38 C1509.93,1418.9 1505.56,1423.46 1500.04,1423.46 L1500.04,1423.46 C1499.96,1423.46 1499.87,1423.46 1499.79,1423.46 L1499.79,1423.46 C1494.38,1423.46 1489.93,1419.36 1489.8,1413.93 Z M1460.19,1408.4 C1456.21,1404.57 1456.09,1398.24 1459.92,1394.26 L1459.92,1394.26 C1463.75,1390.28 1470.08,1390.17 1474.06,1394 L1474.06,1394 C1478.04,1397.83 1478.16,1404.16 1474.33,1408.14 L1474.33,1408.14 C1472.36,1410.18 1469.74,1411.2 1467.12,1411.2 L1467.12,1411.2 C1464.63,1411.2 1462.13,1410.27 1460.19,1408.4 Z M1524.94,1406.87 C1520.92,1403.09 1520.72,1396.76 1524.5,1392.73 L1524.5,1392.73 C1528.28,1388.71 1534.61,1388.51 1538.64,1392.29 L1538.64,1392.29 C1542.66,1396.07 1542.86,1402.4 1539.08,1406.43 L1539.08,1406.43 C1537.11,1408.52 1534.45,1409.58 1531.79,1409.58 L1531.79,1409.58 C1529.33,1409.58 1526.87,1408.68 1524.94,1406.87 Z M1443.2,1369.37 C1443.14,1363.85 1447.56,1359.21 1453.08,1359.14 L1453.08,1359.14 C1458.6,1359.07 1463.13,1363.65 1463.2,1369.18 L1463.2,1369.18 C1463.27,1374.7 1458.85,1379.46 1453.33,1379.46 L1453.33,1379.46 C1453.28,1379.46 1453.24,1379.46 1453.2,1379.46 L1453.2,1379.46 C1447.74,1379.46 1443.27,1374.85 1443.2,1369.37 Z M1534.09,1366.97 C1533.88,1361.45 1538.19,1356.92 1543.71,1356.72 L1543.71,1356.72 C1549.23,1356.52 1553.87,1360.45 1554.07,1366.45 L1554.08,1366.45 C1554.28,1371.45 1549.97,1376.45002 1544.45,1376.45002 L1544.45,1376.45002 C1544.33,1376.45002 1544.2,1376.45002 1544.08,1376.45002 L1544.08,1376.45002 C1538.72,1376.46 1534.29,1372.38 1534.09,1366.97 Z M1459.29,1343.63 C1455.36,1339.75 1455.32,1333.42 1459.2,1329.49 L1459.2,1329.49 C1463.08,1325.56 1469.41,1325.52 1473.34,1329.4 L1473.34,1329.4 C1477.27,1333.29 1477.31,1339.62 1473.43,1343.55 L1473.43,1343.55 C1471.47,1345.53 1468.89,1346.52 1466.31,1346.52 L1466.31,1346.52 C1463.78,1346.52 1461.24,1345.56 1459.29,1343.63 Z M1522.6,1342.31 C1518.53,1338.58 1518.25,1332.25 1521.99,1328.18 L1521.99,1328.18 C1525.72,1324.11 1532.04,1323.83 1536.12,1327.57 L1536.12,1327.57 C1540.19,1331.3 1540.46,1337.63 1536.73,1341.7 L1536.73,1341.7 C1534.76,1343.85 1532.06,1344.94 1529.36,1344.94 L1529.36,1344.94 C1526.94,1344.94 1524.52,1344.07 1522.6,1342.31 Z M1488.77,1323 C1488.77,1317.48 1492.88,1313 1498.88,1313 L1498.88,1313.01 C1503.88,1313.01 1508.77,1317.48 1508.77,1323 L1508.77,1323 C1508.77,1328.53 1504.29,1333 1498.77,1333 L1498.77,1333 L1498.77,1333 L1498.77,1333 C1493.24,1333 1488.77,1328.53 1488.77,1323 Z" id="Shape" fill="#EEEEEE" fill-rule="nonzero"></path>
        <g id="Group" transform="translate(10.000000, 605.460000)" fill="#EEEEEE" fill-rule="nonzero">
            <g transform="translate(7.000000, 531.000000)">
                <path d="M919.88,15 L7.88,15 C3.74,15 0.38,11.64 0.38,7.5 C0.38,3.36 3.74,0 7.88,0 L919.88,0 C924.02,0 927.38,3.36 927.38,7.5 C927.38,11.64 924.02,15 919.88,15 Z" id="Path"></path>
                <path d="M357.38,297.5 C353.24,297.5 349.88,294.14 349.88,290 L349.88,116 C349.88,111.86 353.24,108.5 357.38,108.5 C361.52,108.5 364.88,111.86 364.88,116 L364.88,290 C364.88,294.14 361.52,297.5 357.38,297.5 Z" id="Path"></path>
                <path d="M571.38,297.5 C567.24,297.5 563.88,294.14 563.88,290 L563.88,116 C563.88,111.86 567.24,108.5 571.38,108.5 C575.52,108.5 578.88,111.86 578.88,116 L578.88,290 C578.88,294.14 575.52,297.5 571.38,297.5 Z" id="Path"></path>
                <path d="M664.88,301 L263.88,301 C259.74,301 256.38,297.64 256.38,293.5 C256.38,289.36 259.74,286 263.88,286 L664.88,286 C669.02,286 672.38,289.36 672.38,293.5 C672.38,297.64 669.02,301 664.88,301 Z" id="Path"></path>
                <path d="M463.88,87.97 C448.04,87.97 435.15,75.08 435.15,59.24 C435.15,43.4 448.04,30.51 463.88,30.51 C479.72,30.51 492.61,43.4 492.61,59.24 C492.61,75.08 479.73,87.97 463.88,87.97 Z M463.88,45.5 C456.31,45.5 450.15,51.66 450.15,59.23 C450.15,66.8 456.31,72.96 463.88,72.96 C471.45,72.96 477.61,66.8 477.61,59.23 C477.61,51.66 471.46,45.5 463.88,45.5 Z" id="Shape"></path>
            </g>
            <path d="M896.2,651.68 L44.75,651.68 C20.54,651.68 0.85,631.99 0.85,607.78 L0.85,43.93 C0.85,19.72 20.55,0.03 44.75,0.03 L589.39,0.03 C593.53,0.03 596.89,3.39 596.89,7.53 C596.89,11.67 593.53,15.03 589.39,15.03 L44.75,15.03 C28.81,15.03 15.85,28 15.85,43.93 L15.85,607.77 C15.85,623.71 28.82,636.67 44.75,636.67 L896.2,636.67 C912.14,636.67 925.1,623.7 925.1,607.77 L925.1,353 C925.1,348.86 928.46,345.5 932.6,345.5 C936.74,345.5 940.1,348.86 940.1,353 L940.1,607.78 C940.1,631.99 920.41,651.68 896.2,651.68 Z" id="Path"></path>
        </g>
        <g id="Group" transform="translate(597.000000, 145.460000)" fill="#EEEEEE" fill-rule="nonzero">
            <path d="M953.52,813 L40.73,813 C18.76,813 0.88,795.22 0.88,773.37 L0.88,38.44 C0.88,17.25 18.44,0 40.03,0 L954.17,0 C975.51,0 992.88,17.04 992.88,37.99 L992.88,773.85 C992.88,795.44 975.22,813 953.52,813 Z M40.04,15 C26.72,15 15.89,25.51 15.89,38.44 L15.89,773.37 C15.89,786.95 27.04,798 40.74,798 L953.53,798 C966.97,798 977.9,787.17 977.9,773.85 L977.9,37.99 C977.9,25.31 967.27,15 954.19,15 L40.04,15 Z" id="Shape"></path>
            <path d="M865.88,123 L15.88,123 C11.74,123 8.38,119.64 8.38,115.5 C8.38,111.36 11.74,108 15.88,108 L865.88,108 C870.02,108 873.38,111.36 873.38,115.5 C873.38,119.64 870.02,123 865.88,123 Z" id="Path"></path>
            <path d="M199.38,116.5 C195.24,116.5 191.88,113.14 191.88,109 L191.88,14 C191.88,9.86 195.24,6.5 199.38,6.5 C203.52,6.5 206.88,9.86 206.88,14 L206.88,109 C206.88,113.14 203.52,116.5 199.38,116.5 Z" id="Path"></path>
            <g transform="translate(54.000000, 36.000000)" id="Shape">
                <path d="M23.4,47.35 C10.61,47.35 0.2,36.94 0.2,24.15 C0.2,11.36 10.61,0.95 23.4,0.95 C36.19,0.95 46.6000072,11.36 46.6000072,24.15 C46.61,36.94 36.2,47.35 23.4,47.35 Z M23.4,15.95 C18.88,15.95 15.2,19.63 15.2,24.15 C15.2,28.67 18.88,32.35 23.4,32.35 C27.92,32.35 31.6000203,28.67 31.6000203,24.15 C31.61,19.63 27.93,15.95 23.4,15.95 Z"></path>
                <path d="M86.56,47.35 C73.77,47.35 63.36,36.94 63.36,24.15 C63.36,11.36 73.77,0.95 86.56,0.95 C99.35,0.95 109.760007,11.36 109.760007,24.15 C109.77,36.94 99.36,47.35 86.56,47.35 Z M86.56,15.95 C82.04,15.95 78.36,19.63 78.36,24.15 C78.36,28.67 82.04,32.35 86.56,32.35 C91.08,32.35 94.7600203,28.67 94.7600203,24.15 C94.77,19.63 91.09,15.95 86.56,15.95 Z"></path>
            </g>
            <g transform="translate(246.000000, 39.000000)" id="Path">
                <path d="M497.88,15 L7.88,15 C3.74,15 0.38,11.64 0.38,7.5 C0.38,3.36 3.74,0 7.88,0 L497.88,0 C502.02,0 505.38,3.36 505.38,7.5 C505.38,11.64 502.02,15 497.88,15 Z"></path>
                <path d="M270.88,46 L7.88,46 C3.74,46 0.38,42.64 0.38,38.5 C0.38,34.36 3.74,31 7.88,31 L270.88,31 C275.02,31 278.38,34.36 278.38,38.5 C278.38,42.64 275.02,46 270.88,46 Z"></path>
            </g>
            <path d="M975.88,123 L926.88,123 C922.74,123 919.38,119.64 919.38,115.5 C919.38,111.36 922.74,108 926.88,108 L975.88,108 C980.02,108 983.38,111.36 983.38,115.5 C983.38,119.64 980.02,123 975.88,123 Z" id="Path"></path>
            <path d="M928.88,341.5 C928.88,345.64 925.52,349 921.38,349 L73.38,349 C69.24,349 65.88,345.64 65.88,341.5 L65.88,171.5 C65.88,167.36 69.24,164 73.38,164 L921.38,164 C925.52,164 928.88,167.36 928.88,171.5 L928.88,341.5 Z M80.88,334 L913.88,334 L913.88,179 L80.88,179 L80.88,334 Z" id="Shape"></path>
            <path d="M921.88,734 L72.88,734 C68.74,734 65.38,730.64 65.38,726.5 C65.38,722.36 68.74,719 72.88,719 L921.88,719 C926.02,719 929.38,722.36 929.38,726.5 C929.38,730.64 926.02,734 921.88,734 Z" id="Path"></path>
            <path d="M210.88,546.5 C210.88,550.64 207.52,554 203.38,554 L73.38,554 C69.24,554 65.88,550.64 65.88,546.5 L65.88,416.5 C65.88,412.36 69.24,409 73.38,409 L203.38,409 C207.52,409 210.88,412.36 210.88,416.5 L210.88,546.5 Z M80.88,539 L195.88,539 L195.88,424 L80.88,424 L80.88,539 Z" id="Shape"></path>
            <path d="M449.88,546.5 C449.88,550.64 446.52,554 442.38,554 L312.38,554 C308.24,554 304.88,550.64 304.88,546.5 L304.88,416.5 C304.88,412.36 308.24,409 312.38,409 L442.38,409 C446.52,409 449.88,412.36 449.88,416.5 L449.88,546.5 Z M319.88,539 L434.88,539 L434.88,424 L319.88,424 L319.88,539 Z" id="Shape"></path>
            <path d="M688.88,546.5 C688.88,550.64 685.52,554 681.38,554 L551.38,554 C547.24,554 543.88,550.64 543.88,546.5 L543.88,416.5 C543.88,412.36 547.24,409 551.38,409 L681.38,409 C685.52,409 688.88,412.36 688.88,416.5 L688.88,546.5 Z M558.88,539 L673.88,539 L673.88,424 L558.88,424 L558.88,539 Z" id="Shape"></path>
            <path d="M928.88,546.5 C928.88,550.64 925.52,554 921.38,554 L790.38,554 C786.24,554 782.88,550.64 782.88,546.5 L782.88,416.5 C782.88,412.36 786.24,409 790.38,409 L921.38,409 C925.52,409 928.88,412.36 928.88,416.5 L928.88,546.5 Z M797.88,539 L913.88,539 L913.88,424 L797.88,424 L797.88,539 Z" id="Shape"></path>
            <path d="M921.88,653 L72.88,653 C68.74,653 65.38,649.64 65.38,645.5 C65.38,641.36 68.74,638 72.88,638 L921.88,638 C926.02,638 929.38,641.36 929.38,645.5 C929.38,649.64 926.02,653 921.88,653 Z" id="Path"></path>
        </g>
        <g id="Group" transform="translate(99.000000, 804.460000)" fill="#EEEEEE" fill-rule="nonzero">
            <path d="M211.88,15 L7.88,15 C3.74,15 0.38,11.64 0.38,7.5 C0.38,3.36 3.74,0 7.88,0 L211.88,0 C216.02,0 219.38,3.36 219.38,7.5 C219.38,11.64 216.02,15 211.88,15 Z" id="Path"></path>
            <path d="M384.88,15 L329.88,15 C325.74,15 322.38,11.64 322.38,7.5 C322.38,3.36 325.74,0 329.88,0 L384.88,0 C389.02,0 392.38,3.36 392.38,7.5 C392.38,11.64 389.02,15 384.88,15 Z" id="Path"></path>
        </g>
        <g id="Group" transform="translate(159.000000, 923.460000)" fill="#EEEEEE" fill-rule="nonzero">
            <path d="M300.88,15 L151.88,15 C147.74,15 144.38,11.64 144.38,7.5 C144.38,3.36 147.74,0 151.88,0 L300.88,0 C305.02,0 308.38,3.36 308.38,7.5 C308.38,11.64 305.02,15 300.88,15 Z" id="Path"></path>
            <path d="M41.88,15 L7.88,15 C3.74,15 0.38,11.64 0.38,7.5 C0.38,3.36 3.74,0 7.88,0 L41.88,0 C46.02,0 49.38,3.36 49.38,7.5 C49.38,11.64 46.02,15 41.88,15 Z" id="Path"></path>
        </g>
        <g id="Group" transform="translate(323.000000, 684.460000)" fill="#EEEEEE" fill-rule="nonzero">
            <path d="M77.88,15 L7.88,15 C3.74,15 0.38,11.64 0.38,7.5 C0.38,3.36 3.74,0 7.88,0 L77.88,0 C82.02,0 85.38,3.36 85.38,7.5 C85.38,11.64 82.02,15 77.88,15 Z" id="Path"></path>
            <path d="M178.88,15 L157.88,15 C153.74,15 150.38,11.64 150.38,7.5 C150.38,3.36 153.74,0 157.88,0 L178.88,0 C183.02,0 186.38,3.36 186.38,7.5 C186.38,11.64 183.02,15 178.88,15 Z" id="Path"></path>
        </g>
    </g>
</svg>