<?xml version="1.0" encoding="UTF-8"?>
<svg width="40px" height="30px" viewBox="0 0 40 30" version="1.1" xmlns="http://www.w3.org/2000/svg" xmlns:xlink="http://www.w3.org/1999/xlink">
    <!-- Generator: Sketch 59 (86127) - https://sketch.com -->
    <title>envelope</title>
    <desc>Created with Sketch.</desc>
    <g id="Page-1" stroke="none" stroke-width="1" fill="none" fill-rule="evenodd">
        <g id="envelope" fill="#0E5E9C" fill-rule="nonzero">
            <path d="M34.495935,0.0609756098 L4.80487805,0.0609756098 C2.15447154,0.0609756098 0,2.21544715 0,4.86585366 L0,25.1585366 C0,27.8089431 2.15447154,29.9634146 4.80487805,29.9634146 L34.4878049,29.9634146 C37.1382114,29.9634146 39.2927059,27.8089431 39.2927059,25.1585366 L39.2927059,4.87398374 C39.300813,2.22357724 37.1463415,0.0609756098 34.495935,0.0609756098 Z M37.1056911,25.1585366 C37.1056911,26.597561 35.9349593,27.7682927 34.495935,27.7682927 L4.80487805,27.7682927 C3.36585366,27.7682927 2.19512195,26.597561 2.19512195,25.1585366 L2.19512195,4.87398374 C2.19512195,3.43495935 3.36585366,2.26422764 4.80487805,2.26422764 L34.4878049,2.26422764 C35.9268293,2.26422764 37.097561,3.43495935 37.097561,4.87398374 L37.097561,25.1585366 L37.1056911,25.1585366 Z" id="Shape"></path>
            <path d="M24.7804878,14.7601626 L34.3902439,6.14227642 C34.8373984,5.73577236 34.8780488,5.04471545 34.4715447,4.58943089 C34.0650407,4.14227642 33.3739837,4.10162602 32.9186992,4.50813008 L19.6666667,16.402439 L17.0813008,14.0934959 C17.0731707,14.0853659 17.0650407,14.0772358 17.0650407,14.0691057 C17.0081301,14.0121951 16.9512195,13.9634146 16.8861789,13.9146341 L6.36585366,4.5 C5.91056911,4.09349593 5.2195122,4.13414634 4.81300813,4.58943089 C4.40650407,5.04471545 4.44715447,5.73577236 4.90243902,6.14227642 L14.6260163,14.8333333 L4.94308943,23.898374 C4.50406504,24.3130081 4.4796748,25.004065 4.89430894,25.4512195 C5.11382114,25.6788618 5.40650407,25.800813 5.69918699,25.800813 C5.96747967,25.800813 6.23577236,25.703252 6.44715447,25.5081301 L16.2764228,16.3130081 L18.9430894,18.695122 C19.1544715,18.8821138 19.4146341,18.9715447 19.6747967,18.9715447 C19.9349593,18.9715447 20.203252,18.8739837 20.4065041,18.6869919 L23.1463415,16.2317073 L32.9186992,25.5162602 C33.1300813,25.7195122 33.4065041,25.8170732 33.6747967,25.8170732 C33.9674797,25.8170732 34.2520325,25.703252 34.4715447,25.4756098 C34.8861789,25.0365854 34.8699187,24.3373984 34.4308943,23.9227642 L24.7804878,14.7601626 Z" id="Path"></path>
        </g>
    </g>
</svg>