<?xml version="1.0" encoding="UTF-8"?>
<svg width="281px" height="60px" viewBox="0 0 281 60" version="1.1" xmlns="http://www.w3.org/2000/svg" xmlns:xlink="http://www.w3.org/1999/xlink">
    <!-- Generator: Sketch 59 (86127) - https://sketch.com -->
    <title>Ozzitech logo</title>
    <desc>Created with Sketch.</desc>
    <defs>
        <linearGradient x1="58.1814835%" y1="58.6682651%" x2="48.5634606%" y2="48.4769569%" id="linearGradient-1">
            <stop stop-color="#8DC63F" stop-opacity="0.4" offset="0%"></stop>
            <stop stop-color="#8DC63F" stop-opacity="0.6" offset="100%"></stop>
        </linearGradient>
        <linearGradient x1="58.1814835%" y1="66.1412917%" x2="48.5634606%" y2="47.1639213%" id="linearGradient-2">
            <stop stop-color="#8DC63F" stop-opacity="0.4" offset="0%"></stop>
            <stop stop-color="#8DC63F" stop-opacity="0.6" offset="100%"></stop>
        </linearGradient>
    </defs>
    <g id="Page-1" stroke="none" stroke-width="1" fill="none" fill-rule="evenodd">
        <g id="Home" transform="translate(-220.000000, -20.000000)">
            <g id="Header">
                <g id="Ozzitech-logo" transform="translate(220.000000, 20.000000)">
                    <g id="Ozzitech">
                        <g id="icon" fill-rule="nonzero">
                            <polygon id="Path" fill="#0E87C1" points="0 60 22.3823239 10.295858 54.1673711 10.295858"></polygon>
                            <polygon id="Path" fill="#0E5E9C" points="83.0566357 0 60.6747787 49.704142 28.8892646 49.704142"></polygon>
                            <polyline id="Path" fill="url(#linearGradient-1)" points="17.8305836 60 82.6955199 0 0 59.9977782"></polyline>
                        </g>
                        <g id="Group-4" transform="translate(211.252747, 24.852071)" fill="#999999" fill-rule="nonzero">
                            <polygon id="Path" points="65.9208391 2.66913985 65.9208391 9.24010444 57.1844606 9.24010444 57.1844606 0.355029586 53.4451395 2.66082568 53.4451395 20.5903303 57.1844606 18.2983911 57.1844606 12.769469 65.9208391 12.769469 65.9208391 20.591716 69.6953508 18.2776057 69.6953508 0.355029586"></polygon>
                            <path d="M44.0342779,16.7386099 C40.8155865,16.7386099 38.1707114,14.1082963 38.1707114,10.3117116 C38.1707114,6.45584829 40.8155865,3.8875704 44.0342779,3.8875704 C45.9659994,3.8875704 47.6937818,4.91598441 48.7400781,6.54269827 L51.6395604,3.85586326 C49.8383093,1.51642817 47.1174321,0 44.0342779,0 C38.6710589,0 34.3060017,4.62786306 34.3060017,10.3117116 C34.3060017,15.9928029 38.6685255,20.591716 44.0342779,20.591716 C47.1174321,20.591716 49.8383093,19.1083735 51.6395604,16.7661813 L48.7400781,14.0793463 C47.6937818,15.7074387 45.9672661,16.7386099 44.0342779,16.7386099 Z" id="Path"></path>
                            <polygon id="Path" points="21.0475601 17.0346375 21.0475601 12.6960272 27.7032679 12.6960272 29.5647963 9.25396139 21.0475601 9.25396139 21.0475601 3.91626514 29.2866666 3.91626514 31.2193444 0.355029586 17.3335587 0.355029586 17.3335587 20.591716 29.8610367 20.591716 31.778191 17.0360232 21.0475601 17.0360232"></polygon>
                            <polygon id="Path" points="15.5279797 0.355029586 1.87645085 0.355029586 0 3.91504629 5.86279878 3.91504629 5.86279878 20.591716 9.63473143 18.1994402 9.63473143 3.91643151 13.6388416 3.91643151"></polygon>
                        </g>
                        <polygon id="I" fill="#0E5E9C" fill-rule="nonzero" points="201.520639 12.0710059 194.64142 15.9509525 194.64142 45.0368086 201.520639 41.1337736"></polygon>
                        <polygon id="Z" fill="#0E5E9C" fill-rule="nonzero" points="191.468235 12.0710059 164.746366 12.0710059 161.372353 17.8002214 179.142828 17.8002214 158.529839 44.9279634 185.617255 44.9279634 189.029392 39.1723611 170.352901 39.1723611"></polygon>
                        <g id="Group-2" transform="translate(124.363236, 12.071006)" fill-rule="nonzero">
                            <polygon id="Z" fill="#0E5E9C" points="32.8508164 0.541266514 7.52159148 1.42108547e-14 4.14757842 5.7292155 21.9180533 5.7292155 7.81597009e-14 32.8569574 28.3924805 32.8569574 31.804618 27.1013552 13.128127 27.1013552"></polygon>
                            <polygon id="Z" fill="#FFFFFF" points="33.4408827 7.10542736e-15 7.10542736e-14 32.8569574 9.55646496 32.8569574"></polygon>
                            <polyline id="Path" fill="url(#linearGradient-2)" points="9.55646496 32.8569574 33.4408827 1.11432841 1.38036179 32.8569574"></polyline>
                        </g>
                        <path d="M107.828474,11.7159763 C97.9430309,11.7159763 89.917836,19.2449857 89.917836,28.5496011 C89.917836,37.8542165 97.9419096,45.3843253 107.828474,45.3843253 C117.764376,45.3843253 125.743598,37.8542165 125.743598,28.5496011 C125.742476,19.2449857 117.764376,11.7159763 107.828474,11.7159763 Z M107.828474,39.116381 C101.812662,39.116381 96.9394611,34.3942584 96.9394611,28.5485016 C96.9394611,22.7511204 101.810419,17.9817217 107.828474,17.9817217 C113.848772,17.9817217 118.770189,22.7511204 118.770189,28.5485016 C118.770189,34.3942584 113.848772,39.116381 107.828474,39.116381 Z" id="O" fill="#0E5E9C" fill-rule="nonzero"></path>
                    </g>
                </g>
            </g>
        </g>
    </g>
</svg>